<svg xmlns="http://www.w3.org/2000/svg" width="24" height="24"><rect width="24" height="24" opacity="0"></rect><g><path d="M23.74 12.1Q23.74 9.02 22.26 6.37Q20.78 3.72 18.23 2.06Q15.67 0.41 12.58 0.26Q10.25 0.14 8.04 0.92Q5.83 1.7 4.1 3.29Q2.35 4.87 1.36 6.98Q0.36 9.1 0.26 11.42Q0.14 13.75 0.92 15.96Q1.7 18.17 3.29 19.9Q4.87 21.65 6.98 22.63Q9.1 23.62 11.45 23.71Q13.99 23.71 15.92 23.09Q17.86 22.46 19.68 20.83Q20.16 20.45 20.21 19.82Q20.26 19.2 19.82 18.74Q19.42 18.26 18.79 18.22Q18.17 18.17 17.74 18.6Q16.42 19.73 14.86 20.28Q13.3 20.83 11.57 20.74Q9.77 20.64 8.23 19.92Q6.7 19.2 5.5 17.88Q4.3 16.54 3.72 14.94Q3.14 13.34 3.24 11.59Q3.34 9.79 4.06 8.26Q4.78 6.72 6.1 5.52Q7.42 4.32 9.01 3.73Q10.61 3.14 12.38 3.24Q14.62 3.34 16.44 4.43Q18.26 5.52 19.38 7.3Q20.5 9.07 20.66 11.26L19.85 11.26Q19.44 11.26 19.15 11.52Q18.86 11.78 18.78 12.17Q18.7 12.55 18.91 12.91L21 16.3Q21.24 16.68 21.65 16.78Q22.06 16.87 22.43 16.69Q22.8 16.51 22.97 16.13Q23.28 15.24 23.51 14.11Q23.74 12.98 23.74 12.1Z" fill="rgba(0,0,0,0.9019607843137255)"></path></g></svg>