<svg xmlns="http://www.w3.org/2000/svg" width="24" height="24"><rect width="24" height="24" opacity="0"></rect><g><path d="M12 5.02Q11.69 5.02 11.46 5.23Q11.23 5.45 11.23 5.76L11.23 11.98Q11.23 12.17 11.28 12.28Q11.33 12.38 11.47 12.53L16.61 17.66Q16.82 17.88 17.14 17.88Q17.45 17.88 17.66 17.66Q17.88 17.45 17.88 17.14Q17.88 16.82 17.66 16.61L12.74 11.69L12.74 5.76Q12.74 5.45 12.53 5.23Q12.31 5.02 12 5.02Z" fill="rgba(0,0,0,0.9019607843137255)"></path><path d="M11.47 1.01Q8.57 1.15 6.17 2.66Q3.77 4.18 2.39 6.65Q1.01 9.12 1.01 12Q1.01 13.01 1.14 13.84Q1.27 14.66 1.58 15.55L1.7 15.86Q1.75 15.98 1.87 16.04Q1.99 16.1 2.12 16.07Q2.26 16.03 2.33 15.91L4.42 12.53Q4.49 12.43 4.46 12.3Q4.44 12.17 4.34 12.08Q4.25 12 4.1 12L2.5 12Q2.5 9.53 3.7 7.39Q4.9 5.26 6.96 3.95Q9.02 2.64 11.52 2.52Q14.09 2.4 16.33 3.58Q18.58 4.75 19.97 6.86Q21.36 8.98 21.48 11.54Q21.6 14.11 20.42 16.36Q19.25 18.6 17.14 19.99Q15.02 21.38 12.46 21.5Q10.61 21.6 8.88 20.99Q7.15 20.38 5.76 19.18Q5.52 18.98 5.21 19Q4.9 19.01 4.7 19.25Q4.54 19.42 4.52 19.67Q4.51 19.92 4.63 20.14Q4.68 20.23 4.78 20.3Q6.43 21.74 8.6 22.43Q10.78 23.11 12.53 22.99Q15.5 22.8 17.96 21.19Q20.42 19.58 21.77 17.02Q23.11 14.45 22.97 11.47Q22.82 8.5 21.23 6.04Q19.63 3.58 17.04 2.22Q14.45 0.86 11.47 1.01Z" fill="rgba(0,0,0,0.9019607843137255)"></path></g></svg>