<svg xmlns="http://www.w3.org/2000/svg" width="24" height="24"><rect width="24" height="24" opacity="0"></rect><g><path d="M22.25 11.38Q22.25 8.93 20.87 6.85Q19.49 4.78 17.14 3.55Q14.78 2.33 12 2.33Q9.22 2.33 6.86 3.55Q4.51 4.78 3.13 6.85Q1.75 8.93 1.75 11.38Q1.75 13.32 2.63 15.05Q3.5 16.78 5.06 18.05Q5.52 18.5 5.33 19.28Q5.14 20.06 4.63 21.02L4.56 21.19Q4.51 21.31 4.55 21.43Q4.58 21.55 4.69 21.61Q4.8 21.67 4.92 21.65Q6 21.48 6.77 21.19Q7.54 20.9 8.23 20.54Q8.74 20.28 9 20.18Q9.26 20.09 9.5 20.16Q10.75 20.42 12 20.42Q14.78 20.42 17.14 19.2Q19.49 17.98 20.87 15.9Q22.25 13.82 22.25 11.38ZM5.62 11.62Q5.62 11.06 6 10.69Q6.38 10.32 6.91 10.32Q7.46 10.32 7.85 10.7Q8.23 11.09 8.23 11.62Q8.23 12.14 7.85 12.53Q7.46 12.91 6.91 12.91Q6.38 12.91 6 12.53Q5.62 12.14 5.62 11.62ZM10.7 11.62Q10.7 11.06 11.09 10.69Q11.47 10.32 12 10.32Q12.55 10.32 12.92 10.69Q13.3 11.06 13.3 11.62Q13.3 12.14 12.92 12.53Q12.55 12.91 12 12.91Q11.47 12.91 11.09 12.53Q10.7 12.14 10.7 11.62ZM15.79 11.62Q15.79 11.06 16.18 10.69Q16.56 10.32 17.09 10.32Q17.64 10.32 18.01 10.69Q18.38 11.06 18.38 11.62Q18.38 12.14 18.01 12.53Q17.64 12.91 17.09 12.91Q16.56 12.91 16.18 12.53Q15.79 12.14 15.79 11.62Z" fill="rgba(0,0,0,0.9019607843137255)"></path></g></svg>