<svg xmlns="http://www.w3.org/2000/svg" width="24" height="24"><rect width="24" height="24" opacity="0"></rect><g><path d="M12 1.01Q9 1.01 6.48 2.48Q3.96 3.96 2.48 6.48Q1.01 9 1.01 12Q1.01 15 2.48 17.52Q3.96 20.04 6.48 21.52Q9 22.99 12 22.99Q14.98 22.99 17.51 21.52Q20.04 20.04 21.52 17.51Q22.99 14.98 22.99 12Q22.99 9.02 21.52 6.49Q20.04 3.96 17.51 2.48Q14.98 1.01 12 1.01ZM12 21.5Q9.43 21.5 7.25 20.22Q5.06 18.94 3.78 16.75Q2.5 14.57 2.5 12Q2.5 9.43 3.78 7.25Q5.06 5.06 7.25 3.78Q9.43 2.5 12 2.5Q14.57 2.5 16.75 3.78Q18.94 5.06 20.22 7.25Q21.5 9.43 21.5 12Q21.5 14.57 20.22 16.75Q18.94 18.94 16.75 20.22Q14.57 21.5 12 21.5ZM8.42 9.24Q8.42 8.74 8.08 8.39Q7.73 8.04 7.2 8.04Q6.7 8.04 6.35 8.39Q6 8.74 6 9.24Q6 9.74 6.35 10.1Q6.7 10.46 7.2 10.46Q7.73 10.46 8.08 10.1Q8.42 9.74 8.42 9.24ZM16.73 8.06Q16.22 8.06 15.88 8.42Q15.53 8.78 15.53 9.29Q15.53 9.79 15.88 10.15Q16.22 10.51 16.73 10.51Q17.26 10.51 17.6 10.15Q17.95 9.79 17.95 9.29Q17.95 8.78 17.6 8.42Q17.26 8.06 16.73 8.06ZM17.04 14.33Q16.78 14.21 16.48 14.32Q16.18 14.42 16.06 14.71Q15.53 15.91 14.44 16.6Q13.34 17.28 12 17.28Q10.63 17.28 9.55 16.6Q8.47 15.91 7.92 14.69Q7.8 14.4 7.5 14.29Q7.2 14.18 6.91 14.3Q6.62 14.42 6.53 14.72Q6.43 15.02 6.55 15.31Q7.3 16.92 8.76 17.86Q10.22 18.79 12 18.79Q13.78 18.79 15.23 17.87Q16.68 16.94 17.42 15.34Q17.54 15.05 17.44 14.75Q17.33 14.45 17.04 14.33Z" fill="rgba(0,0,0,0.9019607843137255)"></path></g></svg>