<svg xmlns="http://www.w3.org/2000/svg" width="24" height="24">
    <g>
        <path d="M12 16.18Q13.2 16.18 14.22 15.58Q15.24 14.98 15.84 13.96Q16.44 12.94 16.44 11.74Q16.44 10.54 15.84 9.53Q15.24 8.52 14.22 7.92Q13.2 7.32 12 7.32Q10.8 7.32 9.78 7.92Q8.76 8.52 8.16 9.53Q7.56 10.54 7.56 11.74Q7.56 12.94 8.16 13.96Q8.76 14.98 9.78 15.58Q10.8 16.18 12 16.18ZM1.01 11.74Q1.01 12.05 1.22 12.26Q1.44 12.48 1.75 12.48Q2.06 12.48 2.28 12.26Q2.5 12.05 2.5 11.74Q2.5 11.42 2.28 11.21Q2.06 10.99 1.75 10.99Q1.44 10.99 1.22 11.21Q1.01 11.42 1.01 11.74ZM1.37 14.38Q1.37 14.69 1.58 14.9Q1.8 15.12 2.11 15.12Q2.42 15.12 2.63 14.9Q2.83 14.69 2.83 14.38Q2.83 14.06 2.63 13.85Q2.42 13.63 2.11 13.63Q1.8 13.63 1.58 13.85Q1.37 14.06 1.37 14.38ZM1.37 9.07Q1.37 9.38 1.58 9.6Q1.8 9.82 2.11 9.82Q2.42 9.82 2.63 9.6Q2.83 9.38 2.83 9.07Q2.83 8.76 2.63 8.54Q2.42 8.33 2.11 8.33Q1.8 8.33 1.58 8.54Q1.37 8.76 1.37 9.07ZM2.38 16.85Q2.38 17.16 2.59 17.38Q2.81 17.59 3.12 17.59Q3.43 17.59 3.65 17.38Q3.86 17.16 3.86 16.85Q3.86 16.54 3.65 16.32Q3.43 16.1 3.12 16.1Q2.81 16.1 2.59 16.32Q2.38 16.54 2.38 16.85ZM2.4 6.6Q2.4 6.91 2.6 7.13Q2.81 7.34 3.12 7.34Q3.43 7.34 3.65 7.13Q3.86 6.91 3.86 6.6Q3.86 6.29 3.65 6.07Q3.43 5.86 3.12 5.86Q2.81 5.86 2.6 6.07Q2.4 6.29 2.4 6.6ZM4.01 18.98Q4.01 19.3 4.21 19.51Q4.42 19.73 4.73 19.73Q5.04 19.73 5.26 19.51Q5.47 19.3 5.47 18.98Q5.47 18.67 5.26 18.46Q5.04 18.24 4.73 18.24Q4.42 18.24 4.21 18.46Q4.01 18.67 4.01 18.98ZM4.03 4.49Q4.03 4.8 4.24 5Q4.44 5.21 4.75 5.21Q5.06 5.21 5.28 5Q5.5 4.8 5.5 4.49Q5.5 4.18 5.28 3.96Q5.06 3.74 4.75 3.74Q4.44 3.74 4.24 3.96Q4.03 4.18 4.03 4.49ZM4.25 11.74Q4.25 13.85 5.29 15.62Q6.34 17.4 8.11 18.44Q9.89 19.49 12 19.49Q14.11 19.49 15.89 18.44Q17.66 17.4 18.71 15.62Q19.75 13.85 19.75 11.74Q19.75 9.62 18.71 7.85Q17.66 6.07 15.89 5.03Q14.11 3.98 12 3.98Q9.89 3.98 8.11 5.03Q6.34 6.07 5.29 7.85Q4.25 9.62 4.25 11.74ZM5.76 11.74Q5.76 10.03 6.6 8.59Q7.44 7.15 8.87 6.31Q10.3 5.47 12 5.47Q13.7 5.47 15.13 6.31Q16.56 7.15 17.4 8.59Q18.24 10.03 18.24 11.74Q18.24 13.44 17.4 14.88Q16.56 16.32 15.13 17.16Q13.7 18 12 18Q10.3 18 8.87 17.16Q7.44 16.32 6.6 14.88Q5.76 13.44 5.76 11.74ZM6.12 20.62Q6.12 20.93 6.34 21.14Q6.55 21.36 6.86 21.36Q7.18 21.36 7.39 21.14Q7.61 20.93 7.61 20.62Q7.61 20.3 7.39 20.09Q7.18 19.87 6.86 19.87Q6.55 19.87 6.34 20.09Q6.12 20.3 6.12 20.62ZM6.14 2.86Q6.14 3.17 6.36 3.38Q6.58 3.6 6.89 3.6Q7.2 3.6 7.42 3.38Q7.63 3.17 7.63 2.86Q7.63 2.54 7.42 2.33Q7.2 2.11 6.89 2.11Q6.58 2.11 6.36 2.33Q6.14 2.54 6.14 2.86ZM8.59 21.62Q8.59 21.94 8.81 22.15Q9.02 22.37 9.34 22.37Q9.65 22.37 9.86 22.15Q10.08 21.94 10.08 21.62Q10.08 21.31 9.86 21.1Q9.65 20.88 9.34 20.88Q9.02 20.88 8.81 21.1Q8.59 21.31 8.59 21.62ZM8.62 1.82Q8.62 2.14 8.83 2.35Q9.05 2.57 9.36 2.57Q9.67 2.57 9.89 2.35Q10.1 2.14 10.1 1.82Q10.1 1.51 9.89 1.3Q9.67 1.08 9.36 1.08Q9.05 1.08 8.83 1.3Q8.62 1.51 8.62 1.82ZM9.07 11.74Q9.07 10.94 9.47 10.27Q9.86 9.6 10.54 9.2Q11.21 8.81 12 8.81Q12.79 8.81 13.46 9.2Q14.14 9.6 14.53 10.27Q14.93 10.94 14.93 11.74Q14.93 12.53 14.53 13.2Q14.14 13.87 13.46 14.27Q12.79 14.66 12 14.66Q11.21 14.66 10.54 14.27Q9.86 13.87 9.47 13.2Q9.07 12.53 9.07 11.74ZM11.26 21.98Q11.26 22.3 11.47 22.51Q11.69 22.73 12 22.73Q12.31 22.73 12.52 22.51Q12.72 22.3 12.72 21.98Q12.72 21.67 12.52 21.46Q12.31 21.24 12 21.24Q11.69 21.24 11.47 21.46Q11.26 21.67 11.26 21.98ZM11.28 1.49Q11.28 1.8 11.48 2.02Q11.69 2.23 12 2.23Q12.31 2.23 12.53 2.02Q12.74 1.8 12.74 1.49Q12.74 1.18 12.53 0.96Q12.31 0.74 12 0.74Q11.69 0.74 11.48 0.96Q11.28 1.18 11.28 1.49ZM13.9 21.65Q13.9 21.96 14.11 22.16Q14.33 22.37 14.64 22.37Q14.95 22.37 15.17 22.16Q15.38 21.96 15.38 21.65Q15.38 21.34 15.17 21.12Q14.95 20.9 14.64 20.9Q14.33 20.9 14.11 21.12Q13.9 21.34 13.9 21.65ZM13.92 1.85Q13.92 2.16 14.14 2.38Q14.35 2.59 14.66 2.59Q14.98 2.59 15.19 2.38Q15.41 2.16 15.41 1.85Q15.41 1.54 15.19 1.32Q14.98 1.1 14.66 1.1Q14.35 1.1 14.14 1.32Q13.92 1.54 13.92 1.85ZM16.37 20.62Q16.37 20.93 16.58 21.14Q16.8 21.36 17.11 21.36Q17.42 21.36 17.64 21.14Q17.86 20.93 17.86 20.62Q17.86 20.3 17.64 20.09Q17.42 19.87 17.11 19.87Q16.8 19.87 16.58 20.09Q16.37 20.3 16.37 20.62ZM16.39 2.86Q16.39 3.17 16.61 3.38Q16.82 3.6 17.14 3.6Q17.45 3.6 17.66 3.38Q17.88 3.17 17.88 2.86Q17.88 2.54 17.66 2.33Q17.45 2.11 17.14 2.11Q16.82 2.11 16.61 2.33Q16.39 2.54 16.39 2.86ZM18.5 18.98Q18.5 19.3 18.72 19.51Q18.94 19.73 19.25 19.73Q19.56 19.73 19.76 19.51Q19.97 19.3 19.97 18.98Q19.97 18.67 19.76 18.46Q19.56 18.24 19.25 18.24Q18.94 18.24 18.72 18.46Q18.5 18.67 18.5 18.98ZM18.5 4.49Q18.5 4.8 18.72 5.02Q18.94 5.23 19.25 5.23Q19.56 5.23 19.78 5.02Q19.99 4.8 19.99 4.49Q19.99 4.18 19.78 3.96Q19.56 3.74 19.25 3.74Q18.94 3.74 18.72 3.96Q18.5 4.18 18.5 4.49ZM20.14 16.87Q20.14 17.18 20.35 17.4Q20.57 17.62 20.88 17.62Q21.19 17.62 21.4 17.4Q21.6 17.18 21.6 16.87Q21.6 16.56 21.4 16.34Q21.19 16.13 20.88 16.13Q20.57 16.13 20.35 16.34Q20.14 16.56 20.14 16.87ZM20.14 6.62Q20.14 6.94 20.35 7.15Q20.57 7.37 20.88 7.37Q21.19 7.37 21.41 7.15Q21.62 6.94 21.62 6.62Q21.62 6.31 21.41 6.1Q21.19 5.88 20.88 5.88Q20.57 5.88 20.35 6.1Q20.14 6.31 20.14 6.62ZM21.17 14.4Q21.17 14.71 21.38 14.93Q21.6 15.14 21.91 15.14Q22.22 15.14 22.43 14.93Q22.63 14.71 22.63 14.4Q22.63 14.09 22.43 13.87Q22.22 13.66 21.91 13.66Q21.6 13.66 21.38 13.87Q21.17 14.09 21.17 14.4ZM21.17 9.1Q21.17 9.41 21.38 9.62Q21.6 9.84 21.91 9.84Q22.22 9.84 22.43 9.62Q22.63 9.41 22.63 9.1Q22.63 8.78 22.43 8.57Q22.22 8.35 21.91 8.35Q21.6 8.35 21.38 8.57Q21.17 8.78 21.17 9.1ZM21.5 11.76Q21.5 12.07 21.72 12.28Q21.94 12.48 22.25 12.48Q22.56 12.48 22.78 12.28Q22.99 12.07 22.99 11.76Q22.99 11.45 22.78 11.23Q22.56 11.02 22.25 11.02Q21.94 11.02 21.72 11.23Q21.5 11.45 21.5 11.76Z"
              fill="rgba(0,0,0,0.9019607843137255)"></path>
    </g>
</svg>