<svg xmlns="http://www.w3.org/2000/svg" width="24" height="24"><rect width="24" height="24" opacity="0"></rect><g><path d="M12 1.01Q9.77 1.01 7.76 1.85Q5.76 2.69 4.22 4.2Q2.71 5.74 1.86 7.75Q1.01 9.77 1.01 12Q1.01 14.98 2.48 17.5Q3.96 20.02 6.49 21.5Q9.02 22.99 12 22.99Q14.98 22.99 17.51 21.52Q20.04 20.04 21.52 17.51Q22.99 14.98 22.99 12Q22.99 9.02 21.5 6.49Q20.02 3.96 17.5 2.48Q14.98 1.01 12 1.01ZM2.5 12Q2.5 10.27 3.1 8.69Q3.7 7.1 4.78 5.83L18.17 19.2Q16.9 20.3 15.31 20.9Q13.73 21.5 12 21.5Q9.43 21.5 7.25 20.22Q5.06 18.94 3.78 16.75Q2.5 14.57 2.5 12ZM5.83 4.78Q7.13 3.7 8.7 3.1Q10.27 2.5 12 2.5Q14.57 2.5 16.75 3.78Q18.94 5.06 20.22 7.25Q21.5 9.43 21.5 12Q21.5 13.73 20.9 15.3Q20.3 16.87 19.2 18.17L5.83 4.78Z" fill="rgba(0,0,0,0.9019607843137255)"></path></g></svg>