<svg xmlns="http://www.w3.org/2000/svg" width="24" height="24"><rect width="24" height="24" opacity="0"></rect><g><path d="M11.83 21.89Q12.82 21.89 13.44 21.38Q14.06 20.88 14.23 20.16Q14.4 19.44 14.14 18.86Q13.94 18.36 13.66 18.05Q13.42 17.69 13.49 17.4Q13.56 17.11 13.88 16.96Q14.21 16.8 14.74 16.82Q16.51 16.94 18 16.45Q19.49 15.96 20.48 14.86Q21.48 13.75 21.79 12.07Q22.08 10.49 21.62 8.86Q21.17 7.22 20.35 6.17Q18.24 3.48 15.5 2.62Q12.77 1.75 10.24 2.27Q7.7 2.78 6.12 4.03Q4.42 5.35 3.26 7.33Q2.11 9.31 2.11 12.6Q2.11 14.57 3.35 16.75Q4.58 18.94 6.82 20.41Q9.05 21.89 11.83 21.89ZM7.32 8.66Q7.87 8.66 8.27 9.05Q8.66 9.43 8.66 9.98Q8.66 10.54 8.27 10.93Q7.87 11.33 7.32 11.33Q6.77 11.33 6.37 10.93Q5.98 10.54 5.98 9.98Q5.98 9.43 6.37 9.05Q6.77 8.66 7.32 8.66ZM9.98 5.3Q10.54 5.3 10.93 5.7Q11.33 6.1 11.33 6.65Q11.33 7.2 10.93 7.6Q10.54 7.99 9.98 7.99Q9.43 7.99 9.05 7.6Q8.66 7.2 8.66 6.65Q8.66 6.1 9.05 5.7Q9.43 5.3 9.98 5.3ZM14.26 5.3Q14.81 5.3 15.19 5.7Q15.58 6.1 15.58 6.65Q15.58 7.2 15.19 7.6Q14.81 7.99 14.26 7.99Q13.7 7.99 13.31 7.6Q12.91 7.2 12.91 6.65Q12.91 6.1 13.31 5.7Q13.7 5.3 14.26 5.3ZM16.92 8.66Q17.47 8.66 17.87 9.05Q18.26 9.43 18.26 9.98Q18.26 10.54 17.87 10.93Q17.47 11.33 16.92 11.33Q16.37 11.33 15.97 10.93Q15.58 10.54 15.58 9.98Q15.58 9.43 15.97 9.05Q16.37 8.66 16.92 8.66Z" fill="rgba(0,0,0,0.9019607843137255)"></path></g></svg>