<svg xmlns="http://www.w3.org/2000/svg" width="24" height="24">
    <rect width="24" height="24" opacity="0"></rect>
    <g>
        <path d="M8.74 22.56Q9.79 22.56 10.73 22.19Q11.66 21.82 12.36 21.12L21.19 12.31Q21.41 12.1 21.41 11.78Q21.41 11.47 21.19 11.26Q20.98 11.04 20.66 11.04Q20.35 11.04 20.11 11.26L11.28 20.06Q10.7 20.64 10.01 20.87Q9.31 21.1 8.69 21.05Q7.73 21.05 6.83 20.65Q5.93 20.26 5.26 19.56Q4.46 18.79 4.2 17.7Q3.94 16.61 4.24 15.5Q4.54 14.4 5.33 13.61L15.29 3.62Q15.65 3.26 16.14 3.08Q16.63 2.9 17.18 2.93Q17.74 2.95 18.24 3.16Q18.74 3.36 19.13 3.74Q19.63 4.27 19.81 4.97Q19.99 5.66 19.82 6.36Q19.66 7.06 19.15 7.56L9.77 16.97Q9.58 17.16 9.14 17.1Q8.71 17.04 8.45 16.78Q8.21 16.54 8.21 16.14Q8.21 15.74 8.45 15.5L16.39 7.56Q16.61 7.34 16.61 7.03Q16.61 6.72 16.39 6.48Q16.18 6.26 15.86 6.26Q15.55 6.26 15.34 6.48L7.39 14.45Q6.94 14.9 6.79 15.53Q6.65 16.15 6.8 16.78Q6.96 17.4 7.39 17.83Q7.82 18.26 8.46 18.48Q9.1 18.7 9.74 18.59Q10.39 18.48 10.85 18.02L20.23 8.62Q21.02 7.82 21.3 6.74Q21.58 5.66 21.29 4.57Q21 3.48 20.21 2.69Q19.63 2.11 18.85 1.79Q18.07 1.46 17.23 1.42Q16.37 1.39 15.59 1.69Q14.81 1.99 14.23 2.57L4.25 12.53Q3.17 13.63 2.77 15.12Q2.38 16.61 2.75 18.08Q3.12 19.56 4.18 20.62Q5.04 21.5 6.26 22.03Q7.49 22.56 8.74 22.56Z"
              fill="rgba(0,0,0,0.9019607843137255)"></path>
    </g>
</svg>