<svg xmlns="http://www.w3.org/2000/svg" width="24" height="24"><rect width="24" height="24" opacity="0"></rect><g><path d="M21.34 13.39Q21.91 13.13 22.12 12.56Q22.32 12 22.12 11.45Q21.91 10.9 21.34 10.63L3.86 2.93Q3.24 2.64 2.66 2.9Q2.09 3.17 1.85 3.74Q1.61 4.32 1.9 4.92L4.73 10.94L18.14 11.69Q18.34 11.69 18.41 11.83Q18.48 11.98 18.41 12.13Q18.34 12.29 18.14 12.29L4.75 13.03L1.9 19.03Q1.61 19.63 1.85 20.22Q2.09 20.81 2.66 21.07Q3.24 21.34 3.86 21.05L21.34 13.39Z" fill="rgba(0,0,0,0.9019607843137255)"></path></g></svg>