<svg xmlns="http://www.w3.org/2000/svg" width="24" height="24"><rect width="24" height="24" opacity="0"></rect><g><path d="M8.5 7.25Q7.78 7.25 7.26 7.76Q6.74 8.28 6.74 9Q6.74 9.72 7.26 10.24Q7.78 10.75 8.5 10.75Q9.22 10.75 9.73 10.24Q10.25 9.72 10.25 9Q10.25 8.28 9.73 7.76Q9.22 7.25 8.5 7.25ZM5.93 1.99Q4.87 1.99 3.96 2.52Q3.05 3.05 2.52 3.96Q1.99 4.87 1.99 5.93L1.99 18.05Q1.99 19.13 2.52 20.04Q3.05 20.95 3.96 21.48Q4.87 22.01 5.93 22.01L18.07 22.01Q19.13 22.01 20.03 21.48Q20.93 20.95 21.46 20.04Q21.98 19.13 21.98 18.05L21.98 5.93Q21.98 4.87 21.46 3.96Q20.93 3.05 20.03 2.52Q19.13 1.99 18.07 1.99L5.93 1.99ZM3.5 5.93Q3.5 4.9 4.21 4.2Q4.92 3.5 5.93 3.5L18.07 3.5Q19.08 3.5 19.79 4.21Q20.5 4.92 20.5 5.93L20.5 14.35L16.7 11.11Q16.03 10.51 15.14 10.48Q14.26 10.44 13.54 10.97L3.5 18.29L3.5 18.05L3.5 5.93ZM5.93 20.5Q5.4 20.5 4.93 20.28Q4.46 20.06 4.13 19.7L14.42 12.19Q14.74 11.98 15.1 11.99Q15.46 12 15.72 12.24L20.5 16.32L20.5 18.05Q20.5 19.06 19.79 19.78Q19.08 20.5 18.07 20.5L5.93 20.5Z" fill="rgba(0,0,0,0.9019607843137255)"></path></g></svg>