<svg xmlns="http://www.w3.org/2000/svg" width="24" height="24">
    <path d="M16.27 20.98Q17.02 20.98 17.64 20.6Q18.26 20.23 18.64 19.61Q19.01 18.98 19.01 18.24L19.01 9.36Q19.01 8.62 18.64 7.98Q18.26 7.34 17.64 6.97Q17.02 6.6 16.27 6.6L4.22 6.6Q3.48 6.6 2.86 6.97Q2.23 7.34 1.86 7.98Q1.49 8.62 1.49 9.36L1.49 18.24Q1.49 18.98 1.86 19.61Q2.23 20.23 2.86 20.6Q3.48 20.98 4.22 20.98L16.27 20.98ZM16.27 8.11Q16.78 8.11 17.15 8.47Q17.52 8.83 17.52 9.36L17.52 18.24Q17.52 18.74 17.15 19.12Q16.78 19.49 16.27 19.49L4.22 19.49Q3.72 19.49 3.35 19.12Q2.98 18.74 2.98 18.24L2.98 9.36Q2.98 8.83 3.35 8.47Q3.72 8.11 4.22 8.11L16.27 8.11Z"
          fill="rgba(0,0,0,0.9019607843137255)"></path>
    <path d="M7.99 3Q7.22 3 6.55 3.29Q5.88 3.58 5.36 4.1Q4.85 4.63 4.56 5.3L6.31 5.3Q6.62 4.94 7.06 4.73Q7.49 4.51 7.99 4.51L18.79 4.51Q19.7 4.51 20.35 5.16Q21 5.81 21 6.72L21 14.23Q21 14.71 20.82 15.12Q20.64 15.53 20.3 15.84L20.3 17.62Q20.95 17.33 21.46 16.82Q21.96 16.32 22.24 15.65Q22.51 14.98 22.51 14.23L22.51 6.72Q22.51 5.71 22.01 4.86Q21.5 4.01 20.65 3.5Q19.8 3 18.79 3L7.99 3Z"
          fill="rgba(0,0,0,0.9019607843137255)"></path>
</svg>